<?xml version="1.0" encoding="utf-8"?>
<!-- Generator: Adobe Illustrator 23.1.1, SVG Export Plug-In . SVG Version: 6.00 Build 0)  -->
<svg version="1.1" id="Calque_1" xmlns="http://www.w3.org/2000/svg" xmlns:xlink="http://www.w3.org/1999/xlink" x="0px" y="0px"
	 viewBox="0 0 214.5 65.6" style="enable-background:new 0 0 214.5 65.6;" xml:space="preserve">
<style type="text/css">
	.st0{fill:#D1262E;}
</style>
<g>
	<path d="M14.2,23.6l0.3-0.2c0.5,0.2,1.3,0.4,2.5,0.4c3.4,0,6.5-2.2,6.5-7.2c0-4.5-2.4-6.4-7.3-6.4c-1.4,0-2.3,0-3.4,0.1
		c-0.1,0.7-0.3,3.3-0.3,6.3v17.3c0,1.7,0,2.9,0.1,3.5c0.1,0.5,0.8,1,0.9,1c0.7,0.2,2.1,0.2,3.3,0.3l0.2,0.2v0.9l0,0.1
		c-1.9,0-4.3-0.2-6.2-0.2c-1.9,0-3.8,0.1-5.7,0.2l-0.2-0.2v-0.9l0.2-0.2c0.6,0,2.1,0,2.7-0.3c0.1,0,0.8-0.5,0.9-1
		c0.1-0.6,0.1-1.8,0.1-3.5V14.4c0-1.7,0-2.9-0.1-3.5c-0.1-0.5-0.8-1-0.9-1C7.1,9.7,5.7,9.7,5.1,9.6L4.9,9.4V8.5l0.2-0.2
		c1.9,0,3.8,0.2,5.7,0.2c2.9,0,5.1-0.2,8.3-0.2c2.9,0,8.6,0.1,8.6,7.5c0,4.4-3.2,9.3-10.3,9.3c-1.6,0-2.5-0.3-2.9-0.6L14.2,23.6z"/>
	<path d="M33.4,25.2c0-3.2-0.2-4.5-0.4-4.8c-0.2-0.2-0.4-0.4-0.6-0.6c-0.2-0.1-1.7-0.4-2.4-0.4h-0.2v-0.7l0.2-0.2
		c1.4,0,3.2,0.2,5,0.2s3.6-0.1,4.9-0.2l0.2,0.2v0.7l-0.2,0.2c-0.5,0-2,0.2-2.2,0.4c-0.2,0.1-0.5,0.3-0.6,0.6
		c-0.2,0.2-0.4,1.5-0.4,4.8v7.9c0,3.1,2.1,5.2,5.3,5.2c3.1,0,6.1-1.2,6.1-6.4v-7c0-4.5-0.5-4.9-3.3-5.4l-0.2-0.3v-0.7l0.2-0.2
		c1.4,0.1,2.7,0.2,4.1,0.2c1.3,0,2.7-0.1,4.2-0.2l0.2,0.2v0.7L53,19.6c-0.8,0-1.9,0.2-2.5,0.6c-0.6,0.6-0.8,1.9-0.8,4.7V32
		c0,5.6-3,8.3-7.8,8.3c-5.8,0-8.5-2.5-8.5-6.6V25.2z"/>
	<path d="M63.3,32c0-2.8-5.2-11.2-7.4-11.2c-0.5,0-0.9,0.1-1.2,0.1L54.4,20l4.1-1.7c2.4,0,5.6,6.2,7,10.4c2.8-4.9,4.2-7.2,6.1-10.2
		h2.7v0.7c-2.7,2.6-5.5,6.6-6.8,9.2c-0.7,1.4-0.8,1.8-0.8,4.8l0,0c0,3.2,0.2,4.5,0.4,4.8c0.2,0.2,0.4,0.4,0.6,0.6
		c0.2,0.1,1.7,0.4,2.5,0.4l0.2,0.2v0.7l-0.2,0.2c-1.6,0-3.4-0.2-5.2-0.2c-1.8,0-3.6,0.1-5.2,0.2l-0.2-0.2v-0.7l0.2-0.2
		c0.9,0,2.4-0.2,2.5-0.4c0.2-0.1,0.5-0.3,0.6-0.6c0.2-0.2,0.4-1.5,0.4-4.8C63.3,33.2,63.3,32,63.3,32z"/>
	<path d="M84.7,33.5c0,1.9,0,3.4,0.2,4.2c0.8,0.3,2.6,0.8,4.3,0.8c5.7,0,9.1-2.9,9.1-10c0-7.2-4.5-8.7-8.8-8.7
		c-2.3,0-3.1,0.2-4.6,0.4c-0.1,1.1-0.2,2.7-0.2,4.3V33.5z M81.4,24.8c0-2,0-3.8-0.1-4c-0.1-0.3-0.4-0.7-0.7-0.8
		c-0.2-0.1-1.8-0.4-2.5-0.4l-0.3-0.2v-0.7l0.2-0.2c1.4,0,3.2,0.2,5,0.2c3,0,6.2-0.2,8.5-0.2c6.1,0,10.5,3,10.5,9.5
		c0,5.8-3.7,11.9-12.9,11.9c-1.7,0-3.8-0.2-5.7-0.2c-1.4,0-3.5,0.1-4.1,0.2l-0.2-0.2V39l0.2-0.2c0.6-0.1,1.5-0.4,1.8-0.7
		c0.2-0.2,0.4-2.9,0.4-7.4v-5.9H81.4z"/>
	<path d="M104.6,25.2c0-3.2-0.2-4.5-0.4-4.8c-0.2-0.2-0.4-0.4-0.6-0.6c-0.2-0.1-1.7-0.4-2.4-0.4H101v-0.7l0.2-0.2
		c1.4,0,3.2,0.2,5,0.2s3.6-0.1,4.9-0.2l0.2,0.2v0.7l-0.2,0.2c-0.5,0-2,0.2-2.2,0.4c-0.2,0.1-0.5,0.3-0.6,0.6
		c-0.2,0.2-0.4,1.5-0.4,4.8v7.9c0,3.1,2.1,5.2,5.3,5.2c3.1,0,6.1-1.2,6.1-6.4v-7c0-4.5-0.5-4.9-3.3-5.4l-0.2-0.2v-0.7l0.2-0.2
		c1.4,0.1,2.7,0.2,4.1,0.2c1.3,0,2.7-0.1,4.2-0.2l0.2,0.2v0.6l-0.2,0.2c-0.8,0-1.9,0.2-2.5,0.6c-0.6,0.6-0.8,1.9-0.8,4.7V32
		c0,5.6-3,8.3-7.8,8.3c-5.8,0-8.5-2.5-8.5-6.6L104.6,25.2L104.6,25.2z"/>
	<path d="M132.3,14.4c0-1.7,0-2.9-0.1-3.5c-0.1-0.5-0.8-1-0.9-1c-0.6-0.2-1.9-0.2-2.4-0.3l-0.2-0.2V8.5l0.2-0.2
		c1.2,0,3.7,0.2,9.1,0.2c3.6,0,7.2-0.1,9.7-0.2l0.8,0.6l-0.4,5.8h-0.7l-0.2-0.2c0-0.9-0.5-3-1.1-3.6c-1.4-0.5-3.7-0.6-5.2-0.6
		c-0.9,0-3,0-4.4,0.4c-0.1,1.8-0.3,5.6-0.3,7.7c0,2,0,5,0.1,5.8c1.1,0.4,2.2,0.4,4.1,0.4c1.8,0,5.2-0.2,6.6-0.6l0.2,0.2v2.5
		l-0.2,0.2c-0.6-0.3-1.9-0.4-5.5-0.4c-2.7,0-4.2,0-5.1,0.1c-0.1,2.5-0.1,4.9-0.1,7.3c0,1.7,0,2.9,0.1,3.5c0.1,0.5,0.8,1,0.9,1
		c0.7,0.2,3,0.2,3.6,0.3l0.2,0.2v0.9l-0.2,0.2c-0.6,0-3.7-0.2-6.5-0.2S129.6,40,129,40l-0.2-0.2v-0.9l0.2-0.2c0.6,0,1.8,0,2.4-0.3
		c0.1,0,0.8-0.5,0.9-1c0.1-0.6,0.1-1.8,0.1-3.5V14.4H132.3z"/>
	<path d="M161.4,19.4c-5.6,0-8,3.4-8,9.2c0,6.9,3.1,10.5,8,10.5c5.7,0,8-4.5,8-9.5C169.4,24,167.2,19.4,161.4,19.4 M161.4,18.1
		c7.8,0,11.7,4,11.7,10.6c0,6.9-5,11.6-11.7,11.6c-7.1,0-11.7-4.2-11.7-11.1C149.7,22,154.4,18.1,161.4,18.1"/>
	<path d="M179.1,25.2c0-3.2-0.2-4.5-0.4-4.8c-0.2-0.2-0.4-0.4-0.6-0.6c-0.2-0.1-1.7-0.4-2.4-0.4l-0.2-0.2v-0.7l0.2-0.2
		c1.4,0,3.2,0.2,5,0.2s3.6-0.1,4.9-0.2l0.2,0.2v0.9l-0.2,0.2c-0.5,0-2,0.2-2.2,0.4c-0.2,0.1-0.5,0.3-0.7,0.6
		c-0.2,0.2-0.4,1.5-0.4,4.8v7.9c0,3.1,2.1,5.2,5.3,5.2c3.1,0,6.1-1.2,6.1-6.4v-7c0-4.5-0.5-4.9-3.3-5.4l-0.2-0.2v-0.7l0.2-0.2
		c1.4,0.1,2.7,0.2,4.1,0.2c1.3,0,2.7-0.1,4.2-0.2l0.2,0.2v0.6l-0.2,0.2c-0.8,0-1.9,0.2-2.5,0.6c-0.5,0.6-0.8,1.9-0.8,4.7V32
		c0,5.6-3,8.3-7.8,8.3c-5.8,0-8.5-2.5-8.5-6.6L179.1,25.2L179.1,25.2z"/>
	<path d="M203.1,37.1h0.5c0.4,0,0.8,0,0.8-0.5c0-0.4-0.4-0.5-0.7-0.5h-0.6V37.1z M202.7,35.8h1.1c0.7,0,1.1,0.3,1.1,0.9
		c0,0.6-0.3,0.8-0.8,0.8l0.9,1.4h-0.5l-0.8-1.3h-0.5v1.3h-0.5V35.8z M203.6,39.5c1.2,0,2.2-1,2.2-2.2c0-1.3-1-2.2-2.2-2.2
		s-2.2,1-2.2,2.2C201.5,38.6,202.4,39.5,203.6,39.5 M203.6,34.7c1.4,0,2.6,1.1,2.6,2.6s-1.2,2.6-2.6,2.6c-1.4,0-2.6-1.1-2.6-2.6
		C201,35.8,202.2,34.7,203.6,34.7"/>
	<path class="st0" d="M168.5,56.8c-6.5,0.7-12.1,0.4-18.8,0.6c-1.6,0.1-3,0.8-3.6,0.6c-0.3-0.2,0.3,0.7,0.9-0.1
		c-0.1,0-0.2-0.5-3.1-0.7l0.9-0.2c-2,0-3.1-1.4-5.6-0.6c0.7-0.2,0.6-0.5,2.5-0.5c-4.3-0.5-3,0.4-4.7,0.3l1.2,0.3
		c-1.2-0.3-1-1.2-3.5-1.6c-0.1,0.3,1.3,0.3-1,0.1c-1-0.2-0.7-0.2-1-0.4c-0.1,0.3-0.7,0.5-2.2,0.5c0.6-0.3,1.3,0.1,1.4-0.4
		c-1.1,0-2.4-0.4-3.2-0.8c-1.2,0.2-2.3-0.4-3.6,0c-0.2-0.7,5.4,0.3,0.8-1.2c0.4,0-0.4,0,1.1,0l-1.6-0.5c-1,0-1.7-0.1,0.2-0.4
		c-5.4-1.3-10.2-2-14.6-1.2c0.6,0.2,1,0,1.3,0.3c-2.2,0.2-1.5-0.2-1.9-0.6c-2.7,0.6-2,0.3-3,0.9c-4-0.7-4.6,0.9-7.4-0.2l0.9,0.5
		c-2-0.8-2.3,0.3-4.5-0.3c-0.1-0.2,0.9-0.1,1.6-0.3c-1.9,0.2-1.9-1.1-3.8-0.8l1.7-0.4c-1.3-0.4-3.4-0.3-3-1
		c-2.7,0.9-8.3,0.1-11.4,0.7l1.3-0.4c-2.2,0.3-5.9-0.2-8,0.3l-1.6,0.6l-2.1-0.1c-0.9-0.2-1-0.6-1.2-0.7c-3.4,0.1-3.1-0.8-8.1-0.3
		c-1.1,0.7-4.1,1.2-7,1.3c-13.6-0.8-28.3,0.3-40.9,2C12,52.2,9.4,53.4,7.1,54c2.6,0.5,3.4,0.5,6-0.1c2,0.2,2.4,1,4.8,0.8l-1-0.2
		c1.3,0.1,2,0.4,4.3-0.6l-0.6,0.5c1-0.2,1.8,0.3,3.8,0.1l1.3,0.3c0.1,1,2.9,0.6,3.8,0.7l-0.6-0.4c1.4,0.3,5.6-0.1,4.6,0.6
		c0.5-0.2,1.2,0,2.4,0.1l-0.7,0.6c1.6,0,1.4-0.7,1.9-0.3c-0.8-0.1,2.6,0.2,1.1-0.3c3.8-2.5,1.6-0.5,7.9-0.6l-0.7,0.2l2.8-0.1
		l1.9,0.3c2.4-1.5,7.9,0.6,11.7-0.4c1.5-0.1,3.9,0.7,6.7,0.7l-0.6-0.6c2.1,1.4,9.6,1.8,12.3,3.2c0.7-0.2,0.8,0.2,0.3-0.4
		c4.2-0.8,4.1,0.5,6.2,1c-0.2-0.9-1.6-0.3-0.2-0.9c3.9,0.8,1.6-0.9,6.4-0.2c-2,0.4,1.6,0.1,1.1,0.4c-3.5,0.4,8.6,0.2,13.7,0.2
		c5.8,0.8,14.7,1.3,21.5,2.3l-0.2-0.2c2.8,0.9,6.7,0.5,10,0.1h-1.7c2.2-0.5,3.3,0.3,4.8-0.1l1.4,0.2c2.7-0.3,1.9,0,2.4-0.2
		c2.1,0.3,6.3,0,7.2,0.1c-0.4,0.2-0.9,0-1.3,0.2c3.7,0.1,2.6-0.5,5.8-0.4l-0.1,0.1c7.7-1.1,18.1-0.4,26.7-1.4
		c-0.6-0.1-0.8,0-1.1-0.2c9.1-0.3,19.5-0.4,26.7-2.7c-4.9,0.4-13.6,1.1-18.2,0.6c-2.4-0.2-3.7,0.2-5.1-0.5c-7.1,0.9-10.2,0.7-17,0.6
		"/>
</g>
</svg>
